<svg id="Capa_1" enable-background="new 0 0 512 512" height="512" viewBox="0 0 512 512" width="512" xmlns="http://www.w3.org/2000/svg"><g><g><g><g><g><g><g><g><g><g><path d="m326.211 426.473-2.863-2.361v-11.032l2.975-2.06.059-8.081c-1.921-19.317-16.794-34.819-36.014-37.539l-88.333-10.17c-20.377-2.883-30.559-9.712-48.323-20.103-24.252-14.187-51.843-21.664-79.94-21.664h-31.671v117.6l115.459 42.976c9.806 3.65 20.185 5.519 30.648 5.519h118.99c16.652 0 32.961-4.732 47.026-13.645l68.266-43.258c14.942-9.468 29.545-21.337 29.871-51.728z" fill="#ffddce"/><path d="m188.209 511.915h118.99c16.652 0 32.961-4.732 47.026-13.645l148.987-94.407c9.829-8.728 11.652-23.396 4.257-34.264-8.091-11.891-21.476-13.958-36.205-6.994l-24.503 10.789c0 17.89-9.158 34.535-24.27 44.11l-68.266 43.258c-14.066 8.913-30.375 13.645-47.026 13.645h-118.99c-10.463 0-20.842-1.869-30.648-5.519l-115.46-42.976v37.508l115.459 42.976c9.807 3.65 20.186 5.519 30.649 5.519z" fill="#ffcbbe"/><g><path d="m315.552 378.695-.004.568.375-.165c-.121-.137-.248-.268-.371-.403z" fill="#f5dbcc"/></g></g></g><path d="m66.945 486.418c0 8.377-6.791 15.168-15.168 15.168h-36.609c-8.377 0-15.168-6.791-15.168-15.168v-185.733c0-8.377 6.791-15.168 15.168-15.168h36.609c8.377 0 15.168 6.791 15.168 15.168z" fill="#407093"/></g></g></g></g></g><g><path d="m341.201 149.147c0-67.238-43.495-124.303-103.879-144.63-4.688-1.578-9.721-1.809-14.544-.711-19.207 4.371-37.004 12.45-52.596 23.447l-26.943 24.401c-22.617 26.136-36.3 60.217-36.3 97.493 0 70.91 49.515 130.249 115.854 145.343 4.82 1.097 9.849.863 14.534-.714 60.382-20.329 103.874-77.393 103.874-144.629z" fill="#e28086"/><path d="m256 .085c-11.206 0-22.12 1.245-32.619 3.59 66.634 14.877 116.442 74.353 116.442 145.472s-49.808 130.595-116.442 145.472c10.499 2.344 21.413 3.59 32.619 3.59 82.324 0 149.061-66.737 149.061-149.061s-66.737-149.063-149.061-149.063z" fill="#dd636e"/><path d="m310.919 167.337 4.458-82.859c.121-2.246-1.733-4.1-3.979-3.979l-82.859 4.458c-3.267.176-4.784 4.136-2.471 6.45l18.263 18.263c1.477 1.477 1.477 3.871 0 5.348l-62.196 62.196c-1.477 1.477-1.477 3.871 0 5.348l31.181 31.181c1.477 1.477 3.871 1.477 5.348 0l62.196-62.196c1.477-1.477 3.871-1.477 5.348 0l18.263 18.263c2.312 2.311 6.272.793 6.448-2.473z" fill="#f4fbff"/></g></g></g><path d="m303.407 406.375h-87.314c-4.142 0-7.5 3.358-7.5 7.5s3.358 7.5 7.5 7.5h87.314z" fill="#ffcbbe"/></g></svg>